<svg width="14" height="18" viewBox="0 0 14 18" fill="none" xmlns="http://www.w3.org/2000/svg">
<path fill-rule="evenodd" clip-rule="evenodd" d="M1.20047 4.68167C-0.345857 3.30716 0.626374 0.75 2.69529 0.75H11.3047C13.3736 0.75 14.3458 3.30716 12.7995 4.68167L9.50172 7.61304C9.3416 7.75537 9.24999 7.95937 9.24999 8.1736V15.8143C9.24999 17.1507 7.63427 17.8199 6.68933 16.875L5.18933 15.375C4.90802 15.0937 4.74999 14.7122 4.74999 14.3143V8.1736C4.74999 7.95937 4.65838 7.75537 4.49826 7.61304L1.20047 4.68167ZM2.69529 2.25C2.00565 2.25 1.68157 3.10239 2.19701 3.56056L5.49481 6.49193C5.97516 6.9189 6.24999 7.53091 6.24999 8.1736V14.3143L7.74999 15.8143V8.1736C7.74999 7.53091 8.02482 6.91891 8.50517 6.49193L11.803 3.56056C12.3184 3.10239 11.9943 2.25 11.3047 2.25H2.69529Z" fill="#0F0F0F"/>
</svg>
