<svg width="16" height="16" viewBox="0 0 16 16" fill="none" xmlns="http://www.w3.org/2000/svg">
<path fill-rule="evenodd" clip-rule="evenodd" d="M11.8328 10.4166C12.6885 9.38964 13.2002 8.08705 13.2002 6.66973C13.2002 3.35451 10.4007 0.666992 6.94731 0.666992C3.49395 0.666992 0.694458 3.35451 0.694458 6.66973C0.694458 9.98495 3.49395 12.6725 6.94731 12.6725C8.42369 12.6725 9.78055 12.1813 10.8503 11.3598L14.7862 15.1383C15.0575 15.3988 15.4974 15.3988 15.7687 15.1383C16.0401 14.8778 16.0401 14.4555 15.7687 14.1951L11.8328 10.4166ZM6.94731 11.3452C4.25752 11.3452 2.07701 9.25193 2.07701 6.66973C2.07701 4.08753 4.25752 1.99424 6.94731 1.99424C9.6371 1.99424 11.8176 4.08753 11.8176 6.66973C11.8176 9.25193 9.6371 11.3452 6.94731 11.3452Z" fill="#0F0F0F"/>
</svg>
