<svg width="350" height="88" viewBox="0 0 350 88" fill="none" xmlns="http://www.w3.org/2000/svg">
    <path d="M76.8349 46.0011C76.8349 45.2199 76.8349 44.4386 76.8349 43.6261C76.8349 42.8136 76.8349 42.0324 76.8349 41.2199L82.8349 35.9699C83.9409 34.9951 84.6667 33.6606 84.884 32.2024C85.1013 30.7442 84.7961 29.2561 84.0224 28.0011L76.6474 15.5011C76.0994 14.552 75.3114 13.7636 74.3625 13.2151C73.4136 12.6666 72.3372 12.3773 71.2411 12.3761C70.5619 12.3709 69.8864 12.4765 69.2411 12.6886L61.6474 15.2511C60.3363 14.3799 58.9687 13.5969 57.5536 12.9074L55.9599 5.0324C55.6741 3.59366 54.8914 2.30127 53.7488 1.38147C52.6062 0.461661 51.1765 -0.0269568 49.7099 0.00114822H35.0849C33.6183 -0.0269568 32.1886 0.461661 31.046 1.38147C29.9034 2.30127 29.1207 3.59366 28.8349 5.0324L27.2411 12.9074C25.8159 13.5968 24.4379 14.3797 23.1161 15.2511L15.6786 12.5636C15.0264 12.3937 14.3511 12.3304 13.6786 12.3761C12.5826 12.3773 11.5062 12.6666 10.5573 13.2151C9.60838 13.7636 8.8204 14.552 8.2724 15.5011L0.897396 28.0011C0.16798 29.2542 -0.103068 30.7219 0.130675 32.1529C0.364417 33.5839 1.08841 34.889 2.17865 35.8449L8.0849 41.2511C8.0849 42.0324 8.0849 42.8136 8.0849 43.6261C8.0849 44.4386 8.0849 45.2199 8.0849 46.0324L2.17865 51.2824C1.05761 52.2449 0.313819 53.5734 0.0792663 55.0322C-0.155286 56.491 0.13457 57.9858 0.897396 59.2511L8.2724 71.7511C8.8204 72.7003 9.60838 73.4887 10.5573 74.0372C11.5062 74.5857 12.5826 74.875 13.6786 74.8761C14.3579 74.8813 15.0334 74.7758 15.6786 74.5636L23.2724 72.0011C24.5835 72.8724 25.9511 73.6553 27.3661 74.3449L28.9599 82.2199C29.2457 83.6586 30.0284 84.951 31.171 85.8708C32.3136 86.7906 33.7433 87.2792 35.2099 87.2511H49.9599C51.4265 87.2792 52.8562 86.7906 53.9988 85.8708C55.1414 84.951 55.9241 83.6586 56.2099 82.2199L57.8036 74.3449C59.2289 73.6555 60.6069 72.8726 61.9286 72.0011L69.4911 74.5636C70.1364 74.7758 70.8119 74.8813 71.4911 74.8761C72.5872 74.875 73.6636 74.5857 74.6125 74.0372C75.5614 73.4887 76.3494 72.7003 76.8974 71.7511L84.0224 59.2511C84.7518 57.9981 85.0229 56.5303 84.7891 55.0994C84.5554 53.6684 83.8314 52.3632 82.7411 51.4074L76.8349 46.0011ZM71.2411 68.6261L60.5224 65.0011C58.0132 67.1265 55.1455 68.7878 52.0536 69.9074L49.8349 81.1261H35.0849L32.8661 70.0324C29.7987 68.8811 26.9465 67.2226 24.4286 65.1261L13.6786 68.6261L6.30365 56.1261L14.8036 48.6261C14.2258 45.3913 14.2258 42.0797 14.8036 38.8449L6.30365 31.1261L13.6786 18.6261L24.3974 22.2511C26.9066 20.1258 29.7743 18.4644 32.8661 17.3449L35.0849 6.12615H49.8349L52.0536 17.2199C55.1211 18.3712 57.9733 20.0297 60.4911 22.1261L71.2411 18.6261L78.6161 31.1261L70.1161 38.6261C70.694 41.861 70.694 45.1726 70.1161 48.4074L78.6161 56.1261L71.2411 68.6261Z" fill="black"/>
    <path d="M42.46 62.376C38.7516 62.376 35.1264 61.2763 32.043 59.216C28.9596 57.1558 26.5564 54.2274 25.1372 50.8013C23.7181 47.3752 23.3468 43.6052 24.0702 39.968C24.7937 36.3309 26.5795 32.99 29.2017 30.3677C31.824 27.7455 35.1649 25.9597 38.802 25.2363C42.4392 24.5128 46.2092 24.8841 49.6353 26.3032C53.0614 27.7224 55.9897 30.1256 58.05 33.209C60.1103 36.2925 61.21 39.9176 61.21 43.626C61.235 46.0952 60.7672 48.5447 59.8338 50.8309C58.9004 53.117 57.5202 55.194 55.7741 56.9401C54.028 58.6862 51.951 60.0664 49.6648 60.9998C47.3787 61.9332 44.9292 62.4011 42.46 62.376ZM42.46 31.126C40.8079 31.0875 39.1652 31.3845 37.6313 31.9991C36.0973 32.6136 34.7039 33.533 33.5354 34.7015C32.367 35.8699 31.4476 37.2633 30.8331 38.7973C30.2185 40.3313 29.9215 41.9739 29.96 43.626C29.9215 45.278 30.2185 46.9207 30.8331 48.4547C31.4476 49.9886 32.367 51.382 33.5354 52.5505C34.7039 53.719 36.0973 54.6383 37.6313 55.2529C39.1652 55.8674 40.8079 56.1645 42.46 56.126C44.112 56.1645 45.7547 55.8674 47.2887 55.2529C48.8226 54.6383 50.216 53.719 51.3845 52.5505C52.553 51.382 53.4723 49.9886 54.0869 48.4547C54.7014 46.9207 54.9985 45.278 54.96 43.626C54.9985 41.9739 54.7014 40.3313 54.0869 38.7973C53.4723 37.2633 52.553 35.8699 51.3845 34.7015C50.216 33.533 48.8226 32.6136 47.2887 31.9991C45.7547 31.3845 44.112 31.0875 42.46 31.126Z" fill="black"/>
    <path d="M93.7784 68V21.4545H124.051V28.5227H102.21V41.1591H122.483V48.2273H102.21V60.9318H124.233V68H93.7784ZM163.472 33.0909L151.04 68H141.949L129.517 33.0909H138.29L146.312 59.0227H146.676L154.722 33.0909H163.472ZM183.432 68.6818C179.932 68.6818 176.909 67.9545 174.364 66.5C171.833 65.0303 169.886 62.9545 168.523 60.2727C167.159 57.5758 166.477 54.4015 166.477 50.75C166.477 47.1591 167.159 44.0076 168.523 41.2955C169.902 38.5682 171.826 36.447 174.295 34.9318C176.765 33.4015 179.667 32.6364 183 32.6364C185.152 32.6364 187.182 32.9848 189.091 33.6818C191.015 34.3636 192.712 35.4242 194.182 36.8636C195.667 38.303 196.833 40.1364 197.682 42.3636C198.53 44.5758 198.955 47.2121 198.955 50.2727V52.7955H170.341V47.25H191.068C191.053 45.6742 190.712 44.2727 190.045 43.0455C189.379 41.803 188.447 40.8258 187.25 40.1136C186.068 39.4015 184.689 39.0455 183.114 39.0455C181.432 39.0455 179.955 39.4545 178.682 40.2727C177.409 41.0758 176.417 42.1364 175.705 43.4545C175.008 44.7576 174.652 46.1894 174.636 47.75V52.5909C174.636 54.6212 175.008 56.3636 175.75 57.8182C176.492 59.2576 177.53 60.3636 178.864 61.1364C180.197 61.8939 181.758 62.2727 183.545 62.2727C184.742 62.2727 185.826 62.1061 186.795 61.7727C187.765 61.4242 188.606 60.9167 189.318 60.25C190.03 59.5833 190.568 58.7576 190.932 57.7727L198.614 58.6364C198.129 60.6667 197.205 62.4394 195.841 63.9545C194.492 65.4545 192.765 66.6212 190.659 67.4545C188.553 68.2727 186.144 68.6818 183.432 68.6818ZM214.142 47.5455V68H205.915V33.0909H213.778V39.0227H214.188C214.991 37.0682 216.271 35.5152 218.028 34.3636C219.801 33.2121 221.991 32.6364 224.597 32.6364C227.006 32.6364 229.104 33.1515 230.892 34.1818C232.695 35.2121 234.089 36.7045 235.074 38.6591C236.074 40.6136 236.566 42.9848 236.551 45.7727V68H228.324V47.0455C228.324 44.7121 227.718 42.8864 226.506 41.5682C225.309 40.25 223.65 39.5909 221.528 39.5909C220.089 39.5909 218.809 39.9091 217.688 40.5455C216.581 41.1667 215.71 42.0682 215.074 43.25C214.453 44.4318 214.142 45.8636 214.142 47.5455Z" fill="black"/>
    <path d="M240.295 28.5227V21.4545H277.432V28.5227H263.045V68H254.682V28.5227H240.295ZM294.619 68.6818C291.119 68.6818 288.097 67.9545 285.551 66.5C283.021 65.0303 281.074 62.9545 279.71 60.2727C278.347 57.5758 277.665 54.4015 277.665 50.75C277.665 47.1591 278.347 44.0076 279.71 41.2955C281.089 38.5682 283.013 36.447 285.483 34.9318C287.953 33.4015 290.854 32.6364 294.188 32.6364C296.339 32.6364 298.369 32.9848 300.278 33.6818C302.203 34.3636 303.9 35.4242 305.369 36.8636C306.854 38.303 308.021 40.1364 308.869 42.3636C309.718 44.5758 310.142 47.2121 310.142 50.2727V52.7955H281.528V47.25H302.256C302.241 45.6742 301.9 44.2727 301.233 43.0455C300.566 41.803 299.634 40.8258 298.438 40.1136C297.256 39.4015 295.877 39.0455 294.301 39.0455C292.619 39.0455 291.142 39.4545 289.869 40.2727C288.597 41.0758 287.604 42.1364 286.892 43.4545C286.195 44.7576 285.839 46.1894 285.824 47.75V52.5909C285.824 54.6212 286.195 56.3636 286.938 57.8182C287.68 59.2576 288.718 60.3636 290.051 61.1364C291.384 61.8939 292.945 62.2727 294.733 62.2727C295.93 62.2727 297.013 62.1061 297.983 61.7727C298.953 61.4242 299.794 60.9167 300.506 60.25C301.218 59.5833 301.756 58.7576 302.119 57.7727L309.801 58.6364C309.316 60.6667 308.392 62.4394 307.028 63.9545C305.68 65.4545 303.953 66.6212 301.847 67.4545C299.741 68.2727 297.331 68.6818 294.619 68.6818ZM332.33 68.6818C328.845 68.6818 325.852 67.9167 323.352 66.3864C320.867 64.8561 318.951 62.7424 317.602 60.0455C316.269 57.3333 315.602 54.2121 315.602 50.6818C315.602 47.1364 316.284 44.0076 317.648 41.2955C319.011 38.5682 320.936 36.447 323.42 34.9318C325.92 33.4015 328.875 32.6364 332.284 32.6364C335.117 32.6364 337.625 33.1591 339.807 34.2045C342.004 35.2348 343.754 36.697 345.057 38.5909C346.36 40.4697 347.102 42.6667 347.284 45.1818H339.42C339.102 43.5 338.345 42.0985 337.148 40.9773C335.966 39.8409 334.383 39.2727 332.398 39.2727C330.716 39.2727 329.239 39.7273 327.966 40.6364C326.693 41.5303 325.701 42.8182 324.989 44.5C324.292 46.1818 323.943 48.197 323.943 50.5455C323.943 52.9242 324.292 54.9697 324.989 56.6818C325.686 58.3788 326.663 59.6894 327.92 60.6136C329.193 61.5227 330.686 61.9773 332.398 61.9773C333.61 61.9773 334.693 61.75 335.648 61.2955C336.617 60.8258 337.428 60.1515 338.08 59.2727C338.731 58.3939 339.178 57.3258 339.42 56.0682H347.284C347.087 58.5379 346.36 60.7273 345.102 62.6364C343.845 64.5303 342.133 66.0152 339.966 67.0909C337.799 68.1515 335.254 68.6818 332.33 68.6818Z" fill="#4B00E0"/>
    </svg>
    